<?xml version="1.0" encoding="UTF-8" standalone="no"?>
<!DOCTYPE svg PUBLIC "-//W3C//DTD SVG 1.1//EN"
 "http://www.w3.org/Graphics/SVG/1.1/DTD/svg11.dtd">
<!-- Generated by graphviz version 2.40.1 (20161225.0304)
 -->
<!-- Title: modules Pages: 1 -->
<svg width="730pt" height="319pt"
 viewBox="0.00 0.00 730.05 318.80" xmlns="http://www.w3.org/2000/svg" xmlns:xlink="http://www.w3.org/1999/xlink">
<g id="graph0" class="graph" transform="scale(1 1) rotate(0) translate(4 314.7997)">
<title>modules</title>
<polygon fill="#ffffff" stroke="transparent" points="-4,4 -4,-314.7997 726.053,-314.7997 726.053,4 -4,4"/>
<!-- RCTRootView -->
<g id="node1" class="node">
<title>RCTRootView</title>
<ellipse fill="none" stroke="#000000" cx="387.6282" cy="-292.7997" rx="63.2664" ry="18"/>
<text text-anchor="middle" x="387.6282" y="-288.5997" font-family="Times,serif" font-size="14.00" fill="#000000">RCTRootView</text>
</g>
<!-- RCTBridge -->
<g id="node2" class="node">
<title>RCTBridge</title>
<ellipse fill="none" stroke="#000000" cx="334.6282" cy="-201.1998" rx="51.2501" ry="18"/>
<text text-anchor="middle" x="334.6282" y="-196.9998" font-family="Times,serif" font-size="14.00" fill="#000000">RCTBridge</text>
</g>
<!-- RCTRootView&#45;&gt;RCTBridge -->
<g id="edge1" class="edge">
<title>RCTRootView&#45;&gt;RCTBridge</title>
<path fill="none" stroke="#000000" d="M359.4069,-276.2938C352.5345,-270.9374 345.9313,-264.3855 341.6282,-256.7997 337.0049,-248.6495 334.8696,-238.7621 334.0046,-229.5983"/>
<polygon fill="#000000" stroke="#000000" points="337.4862,-229.1368 333.4997,-219.3206 330.4947,-229.4803 337.4862,-229.1368"/>
<text text-anchor="middle" x="383.6282" y="-245.5997" font-family="Times,serif" font-size="14.00" fill="#000000">初始化并持有</text>
</g>
<!-- RCTRootContentView -->
<g id="node3" class="node">
<title>RCTRootContentView</title>
<ellipse fill="none" stroke="#000000" cx="382.6282" cy="-18" rx="91.2721" ry="18"/>
<text text-anchor="middle" x="382.6282" y="-13.8" font-family="Times,serif" font-size="14.00" fill="#000000">RCTRootContentView</text>
</g>
<!-- RCTRootView&#45;&gt;RCTRootContentView -->
<g id="edge2" class="edge">
<title>RCTRootView&#45;&gt;RCTRootContentView</title>
<path fill="none" stroke="#000000" d="M411.5588,-275.7562C417.2384,-270.3977 422.5401,-263.9792 425.6282,-256.7997 461.2425,-174.0011 463.7655,-135.6673 425.6282,-54 423.6753,-49.818 420.9711,-45.9503 417.8608,-42.424"/>
<polygon fill="#000000" stroke="#000000" points="420.1333,-39.7508 410.5374,-35.2599 415.2383,-44.7548 420.1333,-39.7508"/>
<text text-anchor="middle" x="587.3406" y="-153.9998" font-family="Times,serif" font-size="14.00" fill="#000000">bundleFinishedLoading,创建并加载为subView</text>
</g>
<!-- RCTUIManager -->
<g id="node4" class="node">
<title>RCTUIManager</title>
<ellipse fill="none" stroke="#000000" cx="325.6282" cy="-109.5999" rx="68.1287" ry="18"/>
<text text-anchor="middle" x="325.6282" y="-105.3999" font-family="Times,serif" font-size="14.00" fill="#000000">RCTUIManager</text>
</g>
<!-- RCTBridge&#45;&gt;RCTUIManager -->
<g id="edge3" class="edge">
<title>RCTBridge&#45;&gt;RCTUIManager</title>
<path fill="none" stroke="#000000" d="M332.8501,-183.1026C331.5804,-170.1804 329.8477,-152.5453 328.3978,-137.788"/>
<polygon fill="#000000" stroke="#000000" points="331.8638,-137.2693 327.4026,-127.6595 324.8973,-137.9539 331.8638,-137.2693"/>
</g>
<!-- RCTUIManager&#45;&gt;RCTRootContentView -->
<g id="edge4" class="edge">
<title>RCTUIManager&#45;&gt;RCTRootContentView</title>
<path fill="none" stroke="#000000" d="M321.9288,-91.4458C320.5517,-79.9949 320.6124,-65.2905 326.9309,-54 329.6721,-49.1019 333.389,-44.7638 337.6106,-40.9501"/>
<polygon fill="#000000" stroke="#000000" points="339.9434,-43.5687 345.653,-34.6439 335.6241,-38.0601 339.9434,-43.5687"/>
<text text-anchor="middle" x="375.9768" y="-59.6" font-family="Times,serif" font-size="14.00" fill="#000000">registerRootView</text>
</g>
<!-- RCTRootShadowView -->
<g id="node5" class="node">
<title>RCTRootShadowView</title>
<ellipse fill="none" stroke="#000000" cx="91.6282" cy="-18" rx="91.7566" ry="18"/>
<text text-anchor="middle" x="91.6282" y="-13.8" font-family="Times,serif" font-size="14.00" fill="#000000">RCTRootShadowView</text>
</g>
<!-- RCTUIManager&#45;&gt;RCTRootShadowView -->
<g id="edge5" class="edge">
<title>RCTUIManager&#45;&gt;RCTRootShadowView</title>
<path fill="none" stroke="#000000" d="M258.4248,-106.5157C202.2066,-102.5438 127.7871,-93.5853 105.9309,-73.5999 98.2881,-66.6113 94.4932,-56.1362 92.6817,-46.1561"/>
<polygon fill="#000000" stroke="#000000" points="96.139,-45.5946 91.4338,-36.1019 89.1923,-46.4569 96.139,-45.5946"/>
<text text-anchor="middle" x="211.9768" y="-62.3999" font-family="Times,serif" font-size="14.00" fill="#000000">registerRootView的时候创建并记录</text>
</g>
</g>
</svg>
